# xmcd
#
# Track frame offsets:
#	300
#	19436
#	34335
#	49914
#	65851
#	85871
#	105219
#	123036
#	143592
#	162153
#	178002
#	195309
#
# Disc length: 2837 seconds
#
# Revision: 1
# Processed by: cddbd v1.5.2PL0 Copyright (c) Steve Scherf et al.
# Submitted via: audiograbber 1.83.01
#
DISCID=9d0b110c
DTITLE=Various Artist - Street Beats V11 S06 CD2
DYEAR=1900
DGENRE=R&B
TTITLE0=Joe Budden - Pump It Up
TTITLE1=The Isley Brothers - What Would You Do? Pt.2
TTITLE2=Dwele - Money Don't Mean A Thing
TTITLE3=Lumidee Ft Busta Rhymes and Fabolous - Never Leave (Uh-Ooooh)
TTITLE4=Freddie Foxx - Lazy
TTITLE5=Erro - Couldn't Hear Me (Over The Music)
TTITLE6=Vinia Mojica - Guilt Junkie
TTITLE7=Siji - Feels Like
TTITLE8=Javine - Real Things (Lazy Days Remix)
TTITLE9=Shamless - Concrete Waves
TTITLE10=Roy Hargrove, The RH Factor Ft McKay - Forget Regret
TTITLE11=T.O.K. - Dom Perignon
EXTD=
EXTT0=
EXTT1=
EXTT2=
EXTT3=
EXTT4=
EXTT5=
EXTT6=
EXTT7=
EXTT8=
EXTT9=
EXTT10=
EXTT11=
PLAYORDER=
